<svg xmlns="http://www.w3.org/2000/svg" xml:space="preserve" width="512" height="512" style="enable-background:new 0 0 512 512">
  <path xmlns="http://www.w3.org/2000/svg" fill="#fff" d="M488 432h-16V321.866a24.058 24.058 0 0 0 6.969-10.9C505.005 302.5 499.708 264.662 472 264H347.859A111.373 111.373 0 0 0 368 200h16a24.027 24.027 0 0 0 24-24c.246-13.025-11.21-24.381-24.25-24A128.426 128.426 0 0 0 288 36.055V24a8 8 0 0 0-8-8h-48a8 8 0 0 0-8 8v12.055A128.426 128.426 0 0 0 128.25 152 24.034 24.034 0 0 0 104 176c-.277 12.881 11.1 24.28 24 24h16a111.373 111.373 0 0 0 20.141 64H144a8 8 0 0 0-5.657 2.343l-49.372 49.373A39.872 39.872 0 0 0 80 329.409V24a8 8 0 0 0-8-8H24a8 8 0 0 0-8 8v464a8 8 0 0 0 8 8h48a8 8 0 0 0 8-8V358.591a39.871 39.871 0 0 0 8.97 13.692l9.369 9.369 43.029 43.029A25.047 25.047 0 0 0 168 430.339a16.376 16.376 0 0 0 8 15.5V448a24.027 24.027 0 0 0-24 24v16a8 8 0 0 0 8 8h80a8 8 0 0 0 8-8v-64h20.9c-.474 1.9-5.175 14.287-4.9 16v48a8 8 0 0 0 8 8h80a8 8 0 0 0 8-8v-16a24.027 24.027 0 0 0-24-24v-.773a15.915 15.915 0 0 0 9.356-7.987l13.91-27.409a8 8 0 0 0 .291-6.6L344 366.455V328h80v104h-16a8 8 0 0 0-8 8v48a8 8 0 0 0 8 8h80a8 8 0 0 0 8-8v-48a8 8 0 0 0-8-8ZM64 480H32V32h32Zm416-192a7.985 7.985 0 0 1-3.227 6.4A15.968 15.968 0 0 0 464 288h-8c-10.6.391-10.6 15.609 0 16l8-.01a8.009 8.009 0 0 1-8 8.01h-32v-32h48a8.009 8.009 0 0 1 8 8Zm-216 72v-16h32v16Zm-48 0v-16h32v16Zm-32 0v-74.283a112.549 112.549 0 0 0 16 11.248V360Zm136-160v71.488c-34.764 32.441-93.245 32.433-128 0V200ZM216 312h32v16h-32Zm48 0h32v16h-32Zm-96 52.686L147.314 344 168 323.314ZM312 336v-39.035a112.549 112.549 0 0 0 16-11.248V360h-16Zm24-83v-53h16a95.442 95.442 0 0 1-16 53Zm-208-69c-10.585-.343-10.593-15.628 0-16h56a8 8 0 0 0 0-16h-39.688A112.4 112.4 0 0 1 224 52.637V88a8 8 0 0 0 16 0V32h32v56a8 8 0 0 0 16 0V52.637A112.4 112.4 0 0 1 367.688 152H328a8 8 0 0 0 0 16h56c10.574.335 10.6 15.627 0 16Zm48 16v53a95.442 95.442 0 0 1-16-53Zm-75.716 127.03 47.03-47.03H168v20.687l-37.652 37.651h-.005L104 364.686l-3.716-3.716c-9.31-8.932-9.31-25.008 0-33.94Zm65.088 86.343a9.013 9.013 0 0 1-12.686 0L115.314 376 136 355.314l25.373 25.373a3.314 3.314 0 0 1 0 4.685 8.048 8.048 0 0 0 0 11.315l4 4a9.012 9.012 0 0 1-.001 12.686ZM232 480h-64v-8a8.009 8.009 0 0 1 8-8h8a8 8 0 0 0 8-8v-8h40Zm112-8v8h-64v-32h40v8a8 8 0 0 0 8 8h8a8.009 8.009 0 0 1 8 8Zm-12.912-40H283.1l4.489-13.47A8.054 8.054 0 0 0 280 408h-40a8 8 0 0 0-8 8v16h-48v-56h146.59l12.767 31.824ZM344 280h64v32h-64Zm96 48h16v104h-16Zm40 152h-64v-32h64ZM208 224c.391-10.6 15.608-10.6 16 0a8 8 0 0 1-16 0Zm80 0c.391-10.6 15.608-10.6 16 0a8 8 0 0 1-16 0Zm-53.657 18.343A19.346 19.346 0 0 1 256 238.42a19.351 19.351 0 0 1 21.657 3.923 8 8 0 0 1-11.314 11.314 3.315 3.315 0 0 0-4.686 0 8 8 0 0 1-11.314 0 3.315 3.315 0 0 0-4.686 0c-7.744 7.23-18.544-3.568-11.314-11.314ZM256 168a32.036 32.036 0 0 0 32-32c-1.758-42.452-62.249-42.44-64 0a32.036 32.036 0 0 0 32 32Zm0-48a16.019 16.019 0 0 1 16 16c-.879 21.226-31.124 21.22-32 0a16.019 16.019 0 0 1 16-16Z" data-original="#000000"/>
</svg>
