<svg xmlns="http://www.w3.org/2000/svg" width="512" height="512">
  <path d="M488.468 0H23.532C10.557 0 0 10.556 0 23.532v464.936C0 501.443 10.557 512 23.532 512h464.936C501.443 512 512 501.443 512 488.468V23.532C512 10.556 501.443 0 488.468 0zM497 488.468c0 4.705-3.828 8.532-8.532 8.532H303.581v-16.548a7.5 7.5 0 0 0-15 0V497H263.5v-16.548a7.5 7.5 0 0 0-15 0V497h-25.081v-16.548a7.5 7.5 0 0 0-15 0V497H23.532c-4.705 0-8.532-3.828-8.532-8.532V23.532C15 18.827 18.828 15 23.532 15h184.887v16.548a7.5 7.5 0 0 0 15 0V15H248.5v16.548a7.5 7.5 0 0 0 15 0V15h25.081v16.548a7.5 7.5 0 0 0 15 0V15h184.887c4.705 0 8.532 3.827 8.532 8.532z"/>
  <path d="M424.339 32.064H352.19c-19.251 0-35.325 13.824-38.839 32.065H198.649c-3.514-18.24-19.589-32.065-38.839-32.065H87.661c-30.656 0-55.597 24.941-55.597 55.597v336.677c0 30.656 24.94 55.597 55.597 55.597h72.149c19.25 0 35.325-13.824 38.839-32.064H313.35c3.514 18.24 19.589 32.064 38.839 32.064h72.149c30.656 0 55.597-24.94 55.597-55.597a7.5 7.5 0 0 0-15 0c0 22.385-18.211 40.597-40.597 40.597H352.19c-10.929 0-20.21-7.177-23.387-17.064h95.536c12.976 0 23.532-10.557 23.532-23.532V87.661c0-12.976-10.557-23.532-23.532-23.532h-95.536c3.177-9.887 12.458-17.065 23.387-17.065h72.149c22.385 0 40.597 18.212 40.597 40.597v304.615a7.5 7.5 0 0 0 15 0V87.661c0-30.656-24.941-55.597-55.597-55.597zm8.532 55.597v336.677c0 4.705-3.828 8.532-8.532 8.532H87.661c-4.705 0-8.532-3.828-8.532-8.532v-288.58a7.5 7.5 0 0 0-15 0v288.58c0 12.976 10.557 23.532 23.532 23.532h95.536c-3.177 9.887-12.458 17.064-23.387 17.064H87.661c-22.385 0-40.597-18.211-40.597-40.597V87.661c0-22.385 18.211-40.597 40.597-40.597h72.149c10.929 0 20.21 7.177 23.387 17.065H87.661c-12.976 0-23.532 10.556-23.532 23.532v16.033a7.5 7.5 0 0 0 15 0V87.661c0-4.705 3.828-8.532 8.532-8.532h336.678c4.704 0 8.532 3.828 8.532 8.532z"/>
  <path d="M173.224 218.595c7.456 0 14.647 2.196 20.795 6.349a7.5 7.5 0 0 0 8.398-12.429c-8.638-5.835-18.732-8.92-29.192-8.92-28.785 0-52.203 23.418-52.203 52.202S144.439 308 173.224 308c11.398 0 21.607-3.726 29.521-10.775a43.577 43.577 0 0 0 4.387-4.525 7.5 7.5 0 0 0-.927-10.566 7.5 7.5 0 0 0-10.566.927 28.548 28.548 0 0 1-2.87 2.962c-5.198 4.629-11.774 6.977-19.545 6.977-20.514 0-37.203-16.689-37.203-37.202s16.689-37.203 37.203-37.203zm52.944 81.905a7.5 7.5 0 0 0 15 0v-31.376c5.742-.031 13.42-.069 17.394-.069 18.32 0 33.225-14.683 33.225-32.73 0-18.048-14.904-32.73-33.225-32.73h-24.894a7.5 7.5 0 0 0-7.5 7.524zm32.394-81.905c9.879 0 18.225 8.119 18.225 17.73s-8.346 17.73-18.225 17.73c-3.954 0-11.527.037-17.263.068-.031-5.895-.069-13.763-.069-17.798 0-3.409-.021-11.596-.04-17.73zm58.542-15.63a7.5 7.5 0 0 0-7.5 7.5v60.928c0 20.88 16.98 37.235 38.657 37.235h1.799c21.677 0 38.657-16.356 38.657-37.235v-60.928a7.5 7.5 0 0 0-15 0v60.928c0 12.676-10.17 22.235-23.657 22.235h-1.799c-13.487 0-23.657-9.559-23.657-22.235v-60.928a7.5 7.5 0 0 0-7.5-7.5zm-189.362-19.626h256.517a7.5 7.5 0 0 0 0-15H127.742a7.5 7.5 0 0 0 0 15zm0 160.322h256.517a7.5 7.5 0 0 0 0-15H127.742a7.5 7.5 0 0 0 0 15z"/>
</svg>
