<svg xmlns="http://www.w3.org/2000/svg" xml:space="preserve" width="512" height="512" style="enable-background:new 0 0 512 512" viewBox="0 0 64 64">
  <g xmlns="http://www.w3.org/2000/svg" fill="#fff">
    <path d="M31 47h2v2h-2z" data-original="#000000"/>
    <path d="M59 14H45.51l1.6-1.067a1 1 0 0 0 .364-.438l2.126-4.95a1 1 0 0 0-.212-1.1l-2.832-2.83a1 1 0 0 0-1.1-.212l-4.95 2.122a1 1 0 0 0-.438.364l-2.791 4.187L33.71 14h-3.053l-.034-.034a9.949 9.949 0 0 0-2.573-9.644 9.066 9.066 0 0 0-8.75-2.379 1 1 0 0 0-.538 1.565l3.722 4.963-3.016 3.016-4.96-3.722a1 1 0 0 0-1.565.538 8.936 8.936 0 0 0 .364 5.7H5a3 3 0 0 0-3 3V49a3 3 0 0 0 3 3h19.82l-.667 4H23a1 1 0 0 0-.8.4l-3 4A1 1 0 0 0 20 62h24a1 1 0 0 0 .8-1.6l-3-4a1 1 0 0 0-.8-.4h-1.153l-.667-4H59a3 3 0 0 0 3-3V17a3 3 0 0 0-3-3Zm-25.328 3.016 4.435-4.88 2.757 2.757-4.88 4.435Zm7.894-9.77 4.055-1.738 1.871 1.871-1.738 4.055-3.313 2.208-3.083-3.083Zm-22.6 6.361a1 1 0 0 0 1.307-.092l4.243-4.243a1 1 0 0 0 .092-1.307l-3.243-4.324a7.14 7.14 0 0 1 5.271 2.095 7.848 7.848 0 0 1 1.907 8.1 1 1 0 0 0 .214 1.1l11.314 11.307a1 1 0 0 0 1.1.214 7.847 7.847 0 0 1 8.1 1.907 7.12 7.12 0 0 1 2.095 5.271l-4.324-3.242a1 1 0 0 0-1.307.092l-4.243 4.243a1 1 0 0 0-.092 1.307l3.242 4.324a7.109 7.109 0 0 1-5.271-2.095c-2.226-2.226-3.075-5.757-1.934-8.038a1 1 0 0 0-.187-1.155L25.929 17.757a1 1 0 0 0-1.155-.187c-2.281 1.142-5.812.292-8.038-1.934a7.12 7.12 0 0 1-2.1-5.271Zm8.714 17.557-1.7.341a1 1 0 0 0-.8.98v1l-6.023 6.076a3.992 3.992 0 0 1-2.857 1.187 4.021 4.021 0 0 1-2.842-6.863l6.057-6.056h1a1 1 0 0 0 .98-.8l.341-1.7Zm-2.25-5.077 2.854-3.146 1.775 1.775-3.146 2.854ZM5 16h9.431a9.215 9.215 0 0 0 .891 1.05c2.641 2.64 6.664 3.687 9.67 2.6l1.876 1.877-2.854 3.146-2.085-2.085a1 1 0 0 0-1.688.511l-.541 2.73h-.6a1 1 0 0 0-.707.293l-6.351 6.349A6.021 6.021 0 0 0 16.3 42.748h.007a5.98 5.98 0 0 0 4.26-1.774l6.315-6.37a1 1 0 0 0 .289-.7v-.594l2.732-.546a1 1 0 0 0 .511-1.688l-2.085-2.085 3.146-2.854 3.877 3.876c-1.087 3.007-.042 7.03 2.6 9.67a9.135 9.135 0 0 0 6.442 2.685 8.8 8.8 0 0 0 2.3-.306 1 1 0 0 0 .538-1.565l-3.722-4.963 3.016-3.016 4.963 3.722a1 1 0 0 0 1.565-.538 9.064 9.064 0 0 0-2.379-8.747 9.946 9.946 0 0 0-9.644-2.573L37.4 20.743 42.617 16H59a1 1 0 0 1 1 1v27H4V17a1 1 0 0 1 1-1Zm37 44H22l1.5-2h17Zm-4.18-4H26.18l.667-4h10.306ZM59 50H5a1 1 0 0 1-1-1v-3h56v3a1 1 0 0 1-1 1Z" data-original="#000000"/>
  </g>
</svg>
