<svg xmlns="http://www.w3.org/2000/svg" xml:space="preserve" style="enable-background:new 0 0 512 512" viewBox="0 0 512 512">
  <path d="M179.2 213.333h153.6c9.426 0 17.067-7.641 17.067-17.067v-34.133c0-9.426-7.641-17.067-17.067-17.067H179.2c-9.426 0-17.067 7.641-17.067 17.067v34.133c0 9.426 7.641 17.067 17.067 17.067zm0-51.2h153.6v34.133H179.2v-34.133zm0 145.067h153.6c9.426 0 17.067-7.641 17.067-17.067V256c0-9.426-7.641-17.067-17.067-17.067H179.2c-9.426 0-17.067 7.641-17.067 17.067v34.133c0 9.426 7.641 17.067 17.067 17.067zm0-51.2h153.6v34.133H179.2V256z"/>
  <path d="M392.218 109.372a7.825 7.825 0 0 0-.333-1.707v-.051L351.352 9.481A16.982 16.982 0 0 0 336.06 0H175.94a17.18 17.18 0 0 0-15.514 9.993l-40.286 97.613v.051a7.873 7.873 0 0 0-.333 1.707 8.04 8.04 0 0 0-.341 1.57V486.4c0 14.138 11.461 25.6 25.6 25.6h221.867c14.138 0 25.6-11.462 25.6-25.6V110.933a8.076 8.076 0 0 0-.315-1.561zM175.94 17.067l159.863-.555 35.439 85.888H140.749l35.191-85.333zm199.527 324.266h-25.6a8.533 8.533 0 0 0 0 17.066h25.6v128a8.533 8.533 0 0 1-8.533 8.533H145.067a8.533 8.533 0 0 1-8.533-8.533v-128h179.2c4.713 0 8.533-3.82 8.533-8.533s-3.82-8.533-8.533-8.533h-179.2V119.467h238.933v221.866z"/>
  <path d="M256 435.2a8.533 8.533 0 0 0 8.533-8.533v-34.133a8.533 8.533 0 0 0-17.066 0v34.133A8.533 8.533 0 0 0 256 435.2z"/>
  <path d="M281.293 402.219a8.534 8.534 0 0 0-3.106 11.648c6.194 10.76 3.774 24.413-5.74 32.389-9.514 7.976-23.38 7.976-32.894 0s-11.934-21.629-5.74-32.389a8.532 8.532 0 0 0-7.317-13.111 8.534 8.534 0 0 0-7.446 4.577c-10.354 17.932-6.339 40.709 9.523 54.019s38.99 13.31 54.852 0 19.877-36.088 9.523-54.019a8.53 8.53 0 0 0-11.655-3.114zM204.8 68.267h-8.533c-4.713 0-8.533 3.82-8.533 8.533s3.82 8.533 8.533 8.533h8.533c4.713 0 8.533-3.82 8.533-8.533s-3.82-8.533-8.533-8.533zm110.933 0H307.2c-4.713 0-8.533 3.82-8.533 8.533s3.82 8.533 8.533 8.533h8.533c4.713 0 8.533-3.82 8.533-8.533s-3.82-8.533-8.533-8.533zm-51.2 0h-17.067c-4.713 0-8.533 3.82-8.533 8.533s3.82 8.533 8.533 8.533h17.067c4.713 0 8.533-3.82 8.533-8.533s-3.82-8.533-8.533-8.533zm-51.2-34.134H204.8c-4.713 0-8.533 3.82-8.533 8.533s3.82 8.533 8.533 8.533h8.533c4.713 0 8.533-3.82 8.533-8.533s-3.82-8.533-8.533-8.533zM307.2 51.2c4.713 0 8.533-3.82 8.533-8.533s-3.82-8.533-8.533-8.533h-8.533c-4.713 0-8.533 3.82-8.533 8.533s3.82 8.533 8.533 8.533h8.533zm-42.667-17.067h-17.067c-4.713 0-8.533 3.82-8.533 8.533s3.82 8.533 8.533 8.533h17.067c4.713 0 8.533-3.82 8.533-8.533s-3.82-8.533-8.533-8.533z"/>
</svg>
