<svg xmlns="http://www.w3.org/2000/svg" width="512" height="512">
  <path d="M252.78 209.524a7.5 7.5 0 0 0-10.607 0l-10.191 10.191-9.866-9.866a7.5 7.5 0 0 0-5.304-2.197H87.697c-1.989 0-3.896.79-5.304 2.197l-9.866 9.866-10.191-10.191a7.5 7.5 0 0 0-10.607 10.606l10.191 10.191-9.866 9.866a7.5 7.5 0 0 0-2.196 5.303v64.043c0 4.143 3.357 7.5 7.5 7.5s7.5-3.357 7.5-7.5v-60.937l7.669-7.669 22.866 22.866c-10.292 12.629-16.478 28.73-16.478 46.254s6.185 33.626 16.478 46.254l-22.866 22.866-7.669-7.669v-31.979c0-4.143-3.357-7.5-7.5-7.5s-7.5 3.357-7.5 7.5v35.085c0 1.989.79 3.896 2.196 5.304l9.866 9.866-10.191 10.191a7.5 7.5 0 1 0 10.608 10.607l10.191-10.191 9.866 9.866a7.502 7.502 0 0 0 5.304 2.196h129.115c1.989 0 3.896-.79 5.304-2.196l9.866-9.866 10.191 10.191c1.465 1.464 3.385 2.196 5.304 2.196s3.839-.732 5.304-2.196a7.5 7.5 0 0 0 0-10.607l-10.191-10.191 9.866-9.866a7.502 7.502 0 0 0 2.196-5.304V245.49a7.5 7.5 0 0 0-2.196-5.303l-9.866-9.866 10.191-10.191a7.501 7.501 0 0 0-.002-10.606zM90.804 222.652h122.902l7.669 7.669-22.866 22.866c-12.629-10.292-28.73-16.478-46.254-16.478s-33.625 6.185-46.254 16.478l-22.866-22.866zm36.906 87.396c0-4.039.987-7.85 2.723-11.215l11.215 11.215-11.215 11.215a24.384 24.384 0 0 1-2.723-11.215zm49.09 0c0 4.039-.987 7.851-2.723 11.215l-11.215-11.215 11.215-11.215a24.39 24.39 0 0 1 2.723 11.215zm-13.331 21.822c-3.364 1.736-7.175 2.723-11.215 2.723s-7.85-.987-11.215-2.723l11.215-11.215zm-11.214-32.429-11.215-11.215c3.364-1.736 7.175-2.723 11.215-2.723s7.851.987 11.215 2.723zm22.141-22.141c-6.322-4.288-13.944-6.797-22.142-6.797s-15.82 2.508-22.142 6.797l-13.438-13.438c9.855-7.61 22.194-12.152 35.579-12.152s25.724 4.543 35.579 12.152zm-44.282 65.497c6.322 4.288 13.944 6.796 22.141 6.796s15.819-2.508 22.141-6.796l13.438 13.438c-9.855 7.61-22.193 12.152-35.579 12.152s-25.724-4.543-35.579-12.152zm54.889-10.607c4.288-6.322 6.796-13.944 6.796-22.141s-2.508-15.819-6.796-22.141l13.438-13.438c7.61 9.855 12.152 22.193 12.152 35.579s-4.543 25.724-12.153 35.579zm-91.087-22.142c0-13.386 4.543-25.724 12.152-35.579l13.438 13.438c-4.288 6.322-6.796 13.944-6.796 22.141s2.508 15.82 6.796 22.141l-13.438 13.438c-7.609-9.855-12.152-22.193-12.152-35.579zm119.79 87.397H90.804l-7.669-7.669 22.866-22.866c12.629 10.292 28.73 16.477 46.254 16.477s33.625-6.185 46.254-16.477l22.866 22.866zm25.945-148.848v122.902l-7.669 7.669-22.866-22.866c10.292-12.629 16.478-28.73 16.478-46.254 0-17.523-6.185-33.625-16.478-46.254l22.866-22.866zM38.078 174.95c0-4.142-3.357-7.472-7.5-7.472s-7.5 3.386-7.5 7.528 3.357 7.5 7.5 7.5 7.5-3.358 7.5-7.5zm-7.5 262.667c-4.143 0-7.5 3.387-7.5 7.529s3.357 7.5 7.5 7.5 7.5-3.357 7.5-7.5v-.058c0-4.141-3.357-7.471-7.5-7.471zM488.923 174.95c0-4.142-3.357-7.472-7.5-7.472s-7.5 3.386-7.5 7.528 3.357 7.5 7.5 7.5 7.5-3.358 7.5-7.5zm-7.5 262.667c-4.143 0-7.5 3.387-7.5 7.529s3.357 7.5 7.5 7.5 7.5-3.357 7.5-7.5v-.058c0-4.141-3.358-7.471-7.5-7.471zm-21.512-191.034c0-4.857-2.096-9.479-5.749-12.681l-27.843-24.392a7.5 7.5 0 0 0-4.942-1.858H329.29a7.502 7.502 0 0 0-4.942 1.859l-27.842 24.392a16.858 16.858 0 0 0 0 25.363l27.842 24.392a7.5 7.5 0 0 0 4.942 1.858h92.087a7.5 7.5 0 0 0 4.942-1.858l27.844-24.393a16.868 16.868 0 0 0 5.748-12.682zM336.79 222.652h77.087v47.863H336.79zm-31.033 23.931c0-.384.109-.939.634-1.398l15.399-13.491v29.78l-15.399-13.491a1.813 1.813 0 0 1-.634-1.4zm138.52 1.399-15.4 13.492v-29.78l15.399 13.491c.524.459.635 1.014.635 1.399s-.11.939-.634 1.398z"/>
  <path d="M355.945 235.185a7.5 7.5 0 0 0-7.5 7.5v7.798c0 4.142 3.357 7.5 7.5 7.5s7.5-3.358 7.5-7.5v-7.798a7.5 7.5 0 0 0-7.5-7.5zm38.778 0a7.5 7.5 0 0 0-7.5 7.5v7.798c0 4.142 3.357 7.5 7.5 7.5s7.5-3.358 7.5-7.5v-7.798a7.5 7.5 0 0 0-7.5-7.5zm-55.57 185.442h72.361c4.143 0 7.5-3.357 7.5-7.5V375.78c0-4.143-3.357-7.5-7.5-7.5h-72.361a7.499 7.499 0 0 0-7.5 7.5v37.347a7.5 7.5 0 0 0 7.5 7.5zm64.862-15h-21.181V383.28h21.181zm-57.362-22.346h21.181v22.347h-21.181zm-10.63-58.67c0-4.143-3.357-7.5-7.5-7.5h-3.639c-4.143 0-7.5 3.357-7.5 7.5s3.357 7.5 7.5 7.5h3.639a7.5 7.5 0 0 0 7.5-7.5zm46.13 7.5c4.143 0 7.5-3.357 7.5-7.5s-3.357-7.5-7.5-7.5h-13.639c-4.143 0-7.5 3.357-7.5 7.5s3.357 7.5 7.5 7.5zm43.63 0c4.143 0 7.5-3.357 7.5-7.5s-3.357-7.5-7.5-7.5h-3.639c-4.143 0-7.5 3.357-7.5 7.5s3.357 7.5 7.5 7.5zM333.999 83.502c4.143 0 7.5-3.358 7.5-7.5s-3.357-7.5-7.5-7.5H178.002c-4.143 0-7.5 3.358-7.5 7.5s3.357 7.5 7.5 7.5zm-197.755-15H124.6c-4.143 0-7.5 3.358-7.5 7.5s3.357 7.5 7.5 7.5h11.645a7.5 7.5 0 1 0-.001-15zm251.157 15c4.143 0 7.5-3.358 7.5-7.5s-3.357-7.5-7.5-7.5h-11.645c-4.143 0-7.5 3.358-7.5 7.5s3.357 7.5 7.5 7.5z"/>
  <path d="M504.5 405.633c4.143 0 7.5-3.357 7.5-7.5v-235.42c0-9.994-7.978-18.14-17.896-18.453l-45.539-86.611a40.139 40.139 0 0 0-35.62-21.516H167.248c-4.143 0-7.5 3.358-7.5 7.5s3.357 7.5 7.5 7.5h245.696a25.175 25.175 0 0 1 22.343 13.496l41.853 79.601H34.86l41.852-79.601a25.178 25.178 0 0 1 22.343-13.496h38.206c4.143 0 7.5-3.358 7.5-7.5s-3.357-7.5-7.5-7.5H99.056a40.139 40.139 0 0 0-35.62 21.515L17.897 144.26C7.978 144.573 0 152.719 0 162.713v294.671c0 10.191 8.291 18.482 18.482 18.482h475.035c10.191 0 18.482-8.291 18.482-18.482V428.12c0-4.143-3.357-7.5-7.5-7.5s-7.5 3.357-7.5 7.5v29.264a3.486 3.486 0 0 1-3.482 3.482H18.482A3.486 3.486 0 0 1 15 457.384V162.713a3.486 3.486 0 0 1 3.482-3.482h475.035a3.486 3.486 0 0 1 3.482 3.482v235.42a7.5 7.5 0 0 0 7.501 7.5z"/>
</svg>
