<svg xmlns="http://www.w3.org/2000/svg" xml:space="preserve" style="enable-background:new 0 0 512 512" viewBox="0 0 512 512">
  <path d="M187.908 233.745c0-4.57 4.256-7.332 11.729-7.332 8.719 0 11.106 3.618 14.325 3.618 3.736 0 5.397-4.38 5.397-6.571 0-6.284-13.597-7.617-19.722-7.617-11.937 0-25.224 4.856-25.224 19.045 0 22.567 33.321 18.187 33.321 32.471 0 5.712-5.398 8.283-11.626 8.283-10.588 0-13.39-7.332-17.646-7.332-3.218 0-5.916 3.999-5.916 6.666 0 5.523 10.379 11.808 23.978 11.808 14.325 0 24.704-7.047 24.704-20.664 0-24.662-33.32-20.568-33.32-32.375zm54.184 0c0-4.57 4.256-7.332 11.729-7.332 8.719 0 11.106 3.618 14.325 3.618 3.736 0 5.397-4.38 5.397-6.571 0-6.284-13.597-7.617-19.722-7.617-11.937 0-25.224 4.856-25.224 19.045 0 22.567 33.321 18.187 33.321 32.471-.001 5.712-5.398 8.283-11.626 8.283-10.588 0-13.39-7.332-17.646-7.332-3.218 0-5.916 3.999-5.916 6.666 0 5.523 10.379 11.808 23.978 11.808 14.325 0 24.704-7.047 24.704-20.664 0-24.662-33.32-20.568-33.32-32.375zm66.844-17.428h-18.373c-3.529 0-5.917 1.809-5.917 3.81v61.99c.001 1.999 2.388 3.808 5.917 3.808h18.373c13.702 0 24.394-5.904 24.394-21.806v-25.996c0-15.902-10.691-21.806-24.394-21.806zm10.899 47.803c0 7.428-4.048 10.951-10.899 10.951h-10.795v-47.898h10.795c6.851 0 10.899 3.523 10.899 10.951v25.996z"/>
  <path d="M451.27 152.288a7.502 7.502 0 0 0-7.502 7.502v316.652c0 11.334-9.22 20.555-20.554 20.555H88.786c-11.334 0-20.555-9.221-20.555-20.555v-99.937a7.502 7.502 0 0 0-15.004 0v99.937C53.228 496.048 69.179 512 88.786 512h334.427c19.606 0 35.557-15.952 35.557-35.558V159.79a7.5 7.5 0 0 0-7.5-7.502zM423.213 0H88.786C69.179 0 53.228 15.952 53.228 35.558v300.936a7.502 7.502 0 0 0 15.004 0V35.558c0-11.334 9.221-20.555 20.555-20.555h334.427c11.334 0 20.554 9.221 20.554 20.555v84.222a7.502 7.502 0 0 0 7.502 7.502 7.502 7.502 0 0 0 7.502-7.502V35.558C458.77 15.952 442.819 0 423.213 0z"/>
  <path d="M360.146 110.027h-9.668V88.073a7.502 7.502 0 0 0-7.502-7.502 7.502 7.502 0 0 0-7.502 7.502v21.955h-28.483V88.073a7.502 7.502 0 0 0-7.502-7.502 7.502 7.502 0 0 0-7.502 7.502v21.955h-28.484V88.073a7.502 7.502 0 1 0-15.004 0v21.955h-28.483V88.073a7.502 7.502 0 0 0-15.004 0v21.955h-28.483V88.073a7.503 7.503 0 0 0-15.004 0v21.955h-9.667c-10.883 0-19.736 8.853-19.736 19.736v252.474c0 10.883 8.853 19.736 19.736 19.736h9.667v21.955a7.502 7.502 0 0 0 15.004 0v-21.955h28.483v21.955a7.502 7.502 0 0 0 15.004 0v-21.955h28.483v21.955a7.502 7.502 0 0 0 15.004 0v-21.955h28.484v21.955a7.502 7.502 0 0 0 7.502 7.502 7.502 7.502 0 0 0 7.502-7.502v-21.955h28.483v21.955a7.502 7.502 0 0 0 7.502 7.502 7.502 7.502 0 0 0 7.502-7.502v-21.955h9.668c10.882 0 19.735-8.853 19.735-19.736V129.763c0-10.883-8.854-19.736-19.735-19.736zm4.728 272.21a4.737 4.737 0 0 1-4.732 4.732H151.858a4.737 4.737 0 0 1-4.732-4.732V129.763a4.737 4.737 0 0 1 4.732-4.732h208.285a4.738 4.738 0 0 1 4.732 4.732v252.474zM114.632 34.061c-15.38 0-27.892 12.512-27.892 27.892s12.512 27.892 27.892 27.892 27.893-12.512 27.893-27.892-12.513-27.892-27.893-27.892zm0 40.78c-7.107 0-12.888-5.782-12.888-12.888s5.782-12.888 12.888-12.888c7.107 0 12.889 5.782 12.889 12.888s-5.783 12.888-12.889 12.888zm282.736-40.78c-15.38 0-27.892 12.512-27.892 27.892s12.512 27.892 27.892 27.892 27.893-12.512 27.893-27.892-12.515-27.892-27.893-27.892zm0 40.78c-7.106 0-12.888-5.782-12.888-12.888s5.782-12.888 12.888-12.888c7.107 0 12.889 5.782 12.889 12.888s-5.782 12.888-12.889 12.888zM114.632 422.155c-15.38 0-27.892 12.512-27.892 27.892s12.513 27.892 27.892 27.892c15.38 0 27.893-12.512 27.893-27.892s-12.513-27.892-27.893-27.892zm0 40.78c-7.107 0-12.888-5.782-12.888-12.888s5.782-12.888 12.888-12.888c7.107 0 12.889 5.782 12.889 12.888-.001 7.107-5.783 12.888-12.889 12.888zm282.736-40.78c-15.38 0-27.892 12.512-27.892 27.892s12.512 27.892 27.892 27.892 27.893-12.512 27.893-27.892-12.515-27.892-27.893-27.892zm0 40.781c-7.106 0-12.888-5.782-12.888-12.888 0-7.107 5.782-12.888 12.888-12.888 7.107 0 12.889 5.782 12.889 12.888s-5.782 12.888-12.889 12.888z"/>
</svg>
