<svg xmlns="http://www.w3.org/2000/svg" width="512" height="512" viewBox="0 0 64 64">
  <path d="M60 15h-7v-1c0-1.654-1.346-3-3-3H31c-1.654 0-3 1.346-3 3v4h-.465l-1.703-2.555A1.001 1.001 0 0 0 25 15H4c-1.654 0-3 1.346-3 3v26c0 1.654 1.346 3 3 3h7v5a1 1 0 0 0 1 1h32a1 1 0 0 0 1-1v-5h15c1.654 0 3-1.346 3-3V18c0-1.654-1.346-3-3-3zm-30-1c0-.551.448-1 1-1h19c.552 0 1 .449 1 1v1H39c-.334 0-.646.167-.832.445L36.465 18H30zm13 37H13v-4h2v2h2v-2h2v2h2v-2h2v2h2v-2h2v2h2v-2h2v2h2v-2h2v2h2v-2h2v2h2v-2h2zm18-7c0 .551-.448 1-1 1H4c-.552 0-1-.449-1-1V18c0-.551.448-1 1-1h20.465l1.703 2.555c.186.278.498.445.832.445h10c.334 0 .646-.167.832-.445L39.535 17H60c.552 0 1 .449 1 1z"/>
  <path d="M17 19c-6.617 0-12 5.383-12 12s5.383 12 12 12 12-5.383 12-12-5.383-12-12-12zm0 11a1.001 1.001 0 1 1-1 1c0-.551.448-1 1-1zm.523-1.947c-.019-.003-.04-.003-.059-.006A4.999 4.999 0 0 1 16 24.5c0-1.31.504-2.537 1.408-3.479a9.92 9.92 0 0 1 4.917 1.53 7.007 7.007 0 0 0-2.85 1.732 6.97 6.97 0 0 0-1.952 3.77zm-2.238.492c-.017.012-.031.027-.047.039a5.005 5.005 0 0 1-3.542-1.473 4.995 4.995 0 0 1-1.464-3.451 9.975 9.975 0 0 1 4.561-2.406A7.003 7.003 0 0 0 14 24.5c0 1.47.453 2.869 1.285 4.045zm-5.003-.02a6.98 6.98 0 0 0 3.771 1.952c-.003.019-.003.04-.006.06A5.006 5.006 0 0 1 10.5 32a4.995 4.995 0 0 1-3.479-1.408 9.914 9.914 0 0 1 1.53-4.916 6.99 6.99 0 0 0 1.731 2.849zm6.195 5.422c.019.003.04.003.059.006A4.999 4.999 0 0 1 18 37.5c0 1.31-.504 2.537-1.408 3.479a9.92 9.92 0 0 1-4.917-1.53 7.007 7.007 0 0 0 2.85-1.732 6.97 6.97 0 0 0 1.952-3.77zm2.238-.492c.017-.012.031-.027.047-.039a5.005 5.005 0 0 1 3.542 1.473 4.995 4.995 0 0 1 1.464 3.451 9.975 9.975 0 0 1-4.561 2.406c.516-.99.793-2.096.793-3.246 0-1.47-.453-2.869-1.285-4.045zm5.003.02a6.98 6.98 0 0 0-3.771-1.952c.003-.019.003-.04.006-.06A5.006 5.006 0 0 1 23.5 30c1.309 0 2.537.504 3.479 1.408a9.914 9.914 0 0 1-1.53 4.916 6.99 6.99 0 0 0-1.731-2.849zM23.5 28c-1.47 0-2.868.454-4.045 1.285-.012-.017-.027-.031-.039-.047a4.998 4.998 0 0 1 1.473-3.541 4.995 4.995 0 0 1 3.452-1.464 9.975 9.975 0 0 1 2.406 4.561A7.001 7.001 0 0 0 23.5 28zM7.253 33.206A7.001 7.001 0 0 0 10.5 34c1.47 0 2.868-.454 4.045-1.285.012.017.027.031.039.047a4.998 4.998 0 0 1-1.473 3.541 4.995 4.995 0 0 1-3.452 1.464 9.965 9.965 0 0 1-2.406-4.561zM47 19c-6.617 0-12 5.383-12 12s5.383 12 12 12 12-5.383 12-12-5.383-12-12-12zm0 11a1.001 1.001 0 1 1-1 1c0-.551.448-1 1-1zm.523-1.947c-.019-.003-.04-.003-.059-.006A4.999 4.999 0 0 1 46 24.5c0-1.31.504-2.537 1.408-3.479a9.92 9.92 0 0 1 4.917 1.53 7.007 7.007 0 0 0-2.85 1.732 6.97 6.97 0 0 0-1.952 3.77zm-2.238.492c-.017.012-.031.027-.047.039a5.005 5.005 0 0 1-3.542-1.473 4.995 4.995 0 0 1-1.464-3.451 9.975 9.975 0 0 1 4.561-2.406A7.003 7.003 0 0 0 44 24.5c0 1.47.453 2.869 1.285 4.045zm-5.003-.02a6.98 6.98 0 0 0 3.771 1.952c-.003.019-.003.04-.006.06A5.006 5.006 0 0 1 40.5 32a4.995 4.995 0 0 1-3.479-1.408 9.914 9.914 0 0 1 1.53-4.916 6.99 6.99 0 0 0 1.731 2.849zm6.195 5.422c.019.003.04.003.059.006A4.999 4.999 0 0 1 48 37.5c0 1.31-.504 2.537-1.408 3.479a9.92 9.92 0 0 1-4.917-1.53 7.007 7.007 0 0 0 2.85-1.732 6.97 6.97 0 0 0 1.952-3.77zm2.238-.492c.017-.012.031-.027.047-.039a5.005 5.005 0 0 1 3.542 1.473 4.995 4.995 0 0 1 1.464 3.451 9.975 9.975 0 0 1-4.561 2.406c.516-.99.793-2.096.793-3.246 0-1.47-.453-2.869-1.285-4.045zm5.003.02a6.98 6.98 0 0 0-3.771-1.952c.003-.019.003-.04.006-.06A5.006 5.006 0 0 1 53.5 30c1.309 0 2.537.504 3.479 1.408a9.914 9.914 0 0 1-1.53 4.916 6.99 6.99 0 0 0-1.731-2.849zM53.5 28c-1.47 0-2.868.454-4.045 1.285-.012-.017-.027-.031-.039-.047a4.998 4.998 0 0 1 1.473-3.541 4.995 4.995 0 0 1 3.452-1.464 9.975 9.975 0 0 1 2.406 4.561A7.001 7.001 0 0 0 53.5 28zm-16.247 5.206A7.001 7.001 0 0 0 40.5 34c1.47 0 2.868-.454 4.045-1.285.012.017.027.031.039.047a4.998 4.998 0 0 1-1.473 3.541 4.995 4.995 0 0 1-3.452 1.464 9.965 9.965 0 0 1-2.406-4.561zM5 19h2v2H5zm0 22h2v2H5zm52-22h2v2h-2zm0 22h2v2h-2z"/>
</svg>
